<?xml version="1.0" encoding="UTF-8"?><svg id="Layer_2" xmlns="http://www.w3.org/2000/svg" viewBox="0 0 487.51 246.94"><defs><style>.cls-1{fill:#ed1c24;}.cls-2{fill:#af1f23;}</style></defs><g id="Layer_1-2"><path class="cls-1" d="M120.45,246.94h240.9c-66.52,0-115.78-54.88-120.45-120.45C236.01,61.94,186.97,6.04,120.45,6.04S0,59.97,0,126.49s53.93,120.45,120.45,120.45Zm0-167.29c25.87,0,46.84,20.97,46.84,46.84s-20.97,46.84-46.84,46.84-46.84-20.97-46.84-46.84,20.97-46.84,46.84-46.84Z"/><circle class="cls-2" cx="120.45" cy="126.49" r="40.5"/><path class="cls-1" d="M367.06,0H126.16c66.52,0,115.78,54.88,120.45,120.45,4.89,64.55,53.93,120.45,120.45,120.45s120.45-53.93,120.45-120.45S433.58,0,367.06,0Zm0,167.29c-25.87,0-46.84-20.97-46.84-46.84s20.97-46.84,46.84-46.84,46.84,20.97,46.84,46.84-20.97,46.84-46.84,46.84Z"/></g></svg>