<?xml version="1.0" standalone="no"?>
<!DOCTYPE svg PUBLIC "-//W3C//DTD SVG 20010904//EN"
 "http://www.w3.org/TR/2001/REC-SVG-20010904/DTD/svg10.dtd">
<svg version="1.0" xmlns="http://www.w3.org/2000/svg"
 width="2000.000000pt" height="1500.000000pt" viewBox="0 0 2000.000000 1500.000000"
 preserveAspectRatio="xMidYMid meet">

<g transform="translate(0.000000,1500.000000) scale(0.100000,-0.100000)"
fill="#000000" stroke="none">
<path d="M6905 12174 c-799 -62 -1492 -279 -2136 -670 -932 -564 -1650 -1456
-1999 -2479 -232 -683 -304 -1398 -214 -2125 140 -1130 721 -2199 1606 -2956
632 -540 1407 -904 2223 -1044 315 -54 441 -64 795 -65 342 0 457 8 733 50
1508 232 2811 1194 3482 2570 79 163 185 412 185 435 0 6 -10 10 -22 8 -17 -2
-33 -31 -83 -153 -119 -290 -241 -520 -420 -790 -897 -1358 -2434 -2145 -4051
-2075 -380 17 -688 64 -1035 160 -1042 285 -1948 925 -2577 1820 -241 343
-463 788 -598 1198 -368 1113 -294 2349 204 3407 255 540 574 981 1023 1410
676 648 1591 1087 2526 1214 246 34 386 43 653 43 287 0 501 -17 765 -62 1572
-264 2903 -1328 3510 -2805 50 -122 66 -151 83 -153 12 -2 22 2 22 8 0 20
-101 261 -170 405 -442 927 -1200 1700 -2119 2160 -506 253 -1029 406 -1608
471 -131 15 -662 27 -778 18z"/>
<path d="M7875 8970 c-122 -17 -309 -77 -440 -142 -100 -50 -265 -142 -265
-149 0 -4 21 -12 48 -19 70 -17 181 -66 258 -112 l68 -41 68 18 c95 24 198 18
233 -15 161 -151 -178 -738 -756 -1306 -304 -299 -564 -499 -821 -633 -190
-100 -342 -131 -406 -85 -67 49 -75 122 -31 269 l21 73 -20 29 c-33 47 -98
184 -122 258 -12 39 -25 74 -27 78 -12 21 -169 -280 -228 -437 -57 -154 -77
-261 -73 -392 3 -100 6 -116 33 -169 57 -112 156 -160 325 -158 667 9 1909
1044 2395 1995 126 245 178 419 179 588 0 129 -24 201 -89 265 -72 73 -207
105 -350 85z"/>
<path d="M6630 8570 c-278 -59 -524 -223 -679 -453 -62 -92 -92 -152 -128
-257 -46 -131 -58 -209 -57 -370 2 -120 6 -162 27 -241 51 -193 138 -353 269
-494 94 -101 101 -104 176 -66 93 47 283 178 427 294 408 330 799 770 989
1116 l46 83 -32 41 c-85 106 -262 229 -426 295 -179 72 -423 93 -612 52z"/>
<path d="M7869 7401 c-236 -307 -588 -660 -904 -906 l-100 -78 86 6 c430 33
820 355 942 777 22 76 54 277 45 285 -2 1 -33 -36 -69 -84z"/>
</g>
</svg>
