<?xml version="1.0" encoding="UTF-8"?>
<svg version="1.1" xmlns="http://www.w3.org/2000/svg" width="1526" height="546">
<path d="M0 0 C503.58 0 1007.16 0 1526 0 C1526 180.18 1526 360.36 1526 546 C1022.42 546 518.84 546 0 546 C0 365.82 0 185.64 0 0 Z " fill="#692729" transform="translate(0,0)"/>
<path d="M0 0 C0.72654785 0.22107422 1.4530957 0.44214844 2.20166016 0.66992188 C22.07299721 6.76638695 40.64585775 16.14418477 57 29 C58.34964844 30.01900391 58.34964844 30.01900391 59.7265625 31.05859375 C70.00354102 39.07706224 80.11903749 48.5995482 88 59 C82.63774814 73.17956291 74.32001566 85.9028736 65.9375 98.4375 C65.51511047 99.07058075 65.09272095 99.7036615 64.65753174 100.35592651 C59.02563564 108.77350191 53.1670937 116.96335128 47 125 C46.50185791 125.65073486 46.00371582 126.30146973 45.49047852 126.97192383 C35.51428534 139.91231974 25.24408186 152.67965951 14.14453125 164.67578125 C12.30467937 166.66979194 10.51791393 168.69255178 8.75 170.75 C-1.30003577 182.28158306 -12.03234795 193.19705484 -22.86132812 203.99169922 C-24.89832421 206.023262 -26.92981951 208.06021836 -28.9609375 210.09765625 C-30.28353317 211.41959207 -31.60643849 212.74121817 -32.9296875 214.0625 C-33.52256561 214.65740234 -34.11544373 215.25230469 -34.72628784 215.86523438 C-38.43373747 219.55235444 -42.26578925 223.04772164 -46.22505188 226.46316528 C-48.63481944 228.54965694 -50.97125768 230.71217272 -53.3125 232.875 C-57.80498638 236.97199927 -62.41907282 240.86120426 -67.15234375 244.67578125 C-69.59895594 246.67267323 -71.99583737 248.71527623 -74.38232422 250.78320312 C-83.5412904 258.68550738 -93.24479605 265.85596923 -103 273 C-103.7326709 273.53802246 -104.4653418 274.07604492 -105.22021484 274.63037109 C-119.68751335 285.2030151 -134.82542612 294.80097251 -150.5625 303.375 C-151.25859375 303.76260498 -151.9546875 304.15020996 -152.671875 304.54956055 C-157.43461835 307.07174686 -157.43461835 307.07174686 -160.02392578 306.74316406 C-163.39592095 305.47502059 -165.75423817 302.83155046 -168.3125 300.375 C-168.89499512 299.82376465 -169.47749023 299.2725293 -170.07763672 298.70458984 C-171.22348557 297.61704249 -172.36618206 296.52616207 -173.50537109 295.43164062 C-174.664335 294.32151904 -175.83887664 293.22764936 -177.01953125 292.140625 C-206.43809733 264.36835337 -224.55972923 220.51734151 -226.13842773 180.49023438 C-226.24206219 176.55567244 -226.29829582 172.62322211 -226.3125 168.6875 C-226.31511841 167.9874585 -226.31773682 167.28741699 -226.32043457 166.56616211 C-226.32509689 154.85574787 -225.24355504 143.7198617 -222.54248047 132.3046875 C-222.03947197 130.16769371 -221.59197663 128.02729746 -221.16015625 125.875 C-214.3743024 94.85395381 -196.79024486 67.60610426 -175 45 C-174.34902344 44.29746094 -173.69804687 43.59492188 -173.02734375 42.87109375 C-130.30801336 -2.0250178 -58.45794621 -18.65808024 0 0 Z " fill="#E9E3D5" transform="translate(305,100)"/>
<path d="M0 0 C9.90046891 9.25125784 15.43908275 22.82515194 15.98828125 36.26953125 C17.46473851 105.36250444 -26.67619468 171.92890367 -67.25 224.8125 C-67.72163574 225.42899414 -68.19327148 226.04548828 -68.67919922 226.68066406 C-82.97330571 245.29083174 -98.1207182 263.30123484 -114.13037109 280.45751953 C-116.52529259 283.02680557 -118.89653335 285.61663604 -121.26239014 288.21273804 C-128.15442997 295.75046704 -135.30013083 303.01648593 -142.53320312 310.22607422 C-144.51550244 312.2029601 -146.49232633 314.18521039 -148.46875 316.16796875 C-159.65209827 327.3571846 -159.65209827 327.3571846 -165.59423828 332.40185547 C-168.33590502 334.73764881 -170.93609163 337.22397288 -173.5625 339.6875 C-178.35995628 344.15076707 -183.28162373 348.38224429 -188.39453125 352.484375 C-191.02189366 354.62652 -193.58375009 356.82360745 -196.13842773 359.05078125 C-203.87628601 365.78673211 -211.91789341 372.05078905 -220.11962891 378.20996094 C-222.19383202 379.77024849 -224.25990248 381.34072685 -226.32421875 382.9140625 C-245.44517507 397.4420685 -265.48555515 410.74844675 -286.25 422.8125 C-286.8992041 423.19196777 -287.5484082 423.57143555 -288.21728516 423.96240234 C-308.76954826 435.9044639 -330.22417832 446.11275452 -352.68164062 453.91943359 C-354.93641973 454.7034623 -357.17914311 455.5144375 -359.421875 456.33203125 C-383.6848745 464.66299892 -411.58175109 468.34931007 -435.5625 457.625 C-449.2014209 450.21451964 -455.01775193 439.84287887 -459.234375 425.6171875 C-463.68238835 408.95424519 -460.91025949 392.34123801 -457.25 375.8125 C-457.07339844 375.00699707 -456.89679688 374.20149414 -456.71484375 373.37158203 C-449.03228118 339.33356177 -432.4789859 307.32653287 -414.39477539 277.71899414 C-413.22390179 275.82449892 -413.22390179 275.82449892 -412.25 273.8125 C-411.59 273.8125 -410.93 273.8125 -410.25 273.8125 C-409.981875 274.81925781 -409.71375 275.82601563 -409.4375 276.86328125 C-404.24071859 295.76108207 -396.68476212 316.1443012 -384.890625 331.98046875 C-383.25 334.8125 -383.25 334.8125 -383.34375 337.71875 C-384.58156248 341.9443857 -385.96668163 346.09682805 -387.43359375 350.24609375 C-390.78624867 359.946971 -392.58104519 372.17050046 -388.625 381.9375 C-385.99546989 386.85398059 -382.70552905 389.8405913 -377.45703125 391.91796875 C-366.54825478 394.96073344 -355.72454277 392.21081162 -345.25 388.8125 C-344.07695312 388.44640625 -342.90390625 388.0803125 -341.6953125 387.703125 C-313.62337724 378.08863555 -288.02337035 360.97254821 -264.36279297 343.3828125 C-262.25967078 341.81968771 -260.14804987 340.26863148 -258.03515625 338.71875 C-250.55035167 333.19911566 -243.31822356 327.47278069 -236.2734375 321.40234375 C-233.40715051 318.94711342 -230.49774716 316.55954147 -227.5625 314.1875 C-223.19706431 310.63423839 -218.98607983 306.94600905 -214.83203125 303.1484375 C-212.69564691 301.21567224 -210.53923732 299.31412212 -208.3671875 297.421875 C-196.15307022 286.75033917 -184.66236338 275.32821844 -173.1875 263.875 C-172.55139801 263.24148621 -171.91529602 262.60797241 -171.25991821 261.95526123 C-162.20136388 252.94826519 -162.20136388 252.94826519 -153.65356445 243.46118164 C-151.47276752 240.89953236 -149.16794187 238.46164179 -146.875 236 C-142.5812462 231.35211458 -138.5146816 226.56833652 -134.546875 221.63671875 C-132.52459779 219.1501432 -130.45824312 216.70945918 -128.36767578 214.28027344 C-98.67074476 179.69570043 -52.3217163 125.16400866 -54.79296875 76.7734375 C-55.70001293 70.89703164 -57.47387971 66.58862029 -61.6875 62.375 C-67.65363146 58.73711497 -72.69470793 58.39434094 -79.5625 58.375 C-80.53493652 58.37040771 -81.50737305 58.36581543 -82.50927734 58.36108398 C-90.33161202 58.47999376 -96.8752642 60.02534317 -104.1328125 62.81640625 C-107.40815895 63.86303951 -108.14448895 63.87479487 -111.25 62.8125 C-112.5806473 62.11932006 -113.88473228 61.3737027 -115.1640625 60.58984375 C-115.91574707 60.13762451 -116.66743164 59.68540527 -117.44189453 59.21948242 C-118.64628174 58.49208862 -118.64628174 58.49208862 -119.875 57.75 C-134.31771715 49.22699673 -149.37571881 43.11518542 -165.25 37.8125 C-166.39984375 37.42835937 -167.5496875 37.04421875 -168.734375 36.6484375 C-169.56453125 36.37257812 -170.3946875 36.09671875 -171.25 35.8125 C-169.05042539 33.42919315 -166.84456246 31.84886445 -164.03125 30.24609375 C-163.19198975 29.76591797 -162.35272949 29.28574219 -161.48803711 28.79101562 C-160.13270874 28.02821289 -160.13270874 28.02821289 -158.75 27.25 C-157.33376343 26.45045898 -157.33376343 26.45045898 -155.88891602 25.63476562 C-153.01375166 24.01918562 -150.13271139 22.41456698 -147.25 20.8125 C-146.06446533 20.14758545 -146.06446533 20.14758545 -144.85498047 19.46923828 C-119.74433631 5.45667554 -92.60496011 -5.92422636 -64.25 -11.1875 C-63.41855469 -11.39117187 -62.58710938 -11.59484375 -61.73046875 -11.8046875 C-40.65131092 -16.65123403 -17.12632609 -13.66184027 0 0 Z " fill="#E9E3D5" transform="translate(477.25,44.1875)"/>
<path d="M0 0 C9.7035793 6.42559474 14.96861036 18.18751213 17.35083008 29.23876953 C20.01145847 44.83761951 18.41831905 61.8661093 9.14453125 75.08984375 C2.00639972 83.99199629 -6.77508005 89.94907269 -18.265625 91.5390625 C-28.68349619 92.40836831 -35.84519751 91.61324159 -46.21484375 88.78515625 C-46.21484375 100.66515625 -46.21484375 112.54515625 -46.21484375 124.78515625 C-43.90484375 125.11515625 -41.59484375 125.44515625 -39.21484375 125.78515625 C-36.52284312 126.37713713 -33.88169483 127.08335333 -31.21484375 127.78515625 C-31.21484375 129.76515625 -31.21484375 131.74515625 -31.21484375 133.78515625 C-46.39484375 133.78515625 -61.57484375 133.78515625 -77.21484375 133.78515625 C-77.21484375 131.80515625 -77.21484375 129.82515625 -77.21484375 127.78515625 C-75.61228267 127.28003381 -74.00772583 126.78123998 -72.40234375 126.28515625 C-71.06236328 125.8675 -71.06236328 125.8675 -69.6953125 125.44140625 C-67.21484375 124.78515625 -67.21484375 124.78515625 -64.21484375 124.78515625 C-64.21484375 86.50515625 -64.21484375 48.22515625 -64.21484375 8.78515625 C-67.18484375 8.78515625 -70.15484375 8.78515625 -73.21484375 8.78515625 C-75.22275145 8.50334464 -77.22861355 8.19258809 -79.21484375 7.78515625 C-79.21484375 5.80515625 -79.21484375 3.82515625 -79.21484375 1.78515625 C-74.49158865 0.08180913 -69.82894388 -1.01850369 -64.90234375 -1.90234375 C-64.15412354 -2.03680908 -63.40590332 -2.17127441 -62.63500977 -2.30981445 C-57.23644065 -3.20732877 -52.61925499 -3.295726 -47.21484375 -2.21484375 C-47.21484375 0.42515625 -47.21484375 3.06515625 -47.21484375 5.78515625 C-45.82072266 4.84542969 -45.82072266 4.84542969 -44.3984375 3.88671875 C-43.15005486 3.06072122 -41.90133904 2.2352271 -40.65234375 1.41015625 C-40.04326172 0.99765625 -39.43417969 0.58515625 -38.80664062 0.16015625 C-26.5142592 -7.90468659 -12.57663366 -6.89829465 0 0 Z " fill="#F4EFD1" transform="translate(1229.21484375,226.21484375)"/>
<path d="M0 0 C9.78680173 7.0741556 16.99643136 17.32950215 19.25 29.3125 C20.74517622 46.88164572 19.76944367 63.14490836 8.25 77.3125 C-1.36312509 87.0568623 -12.99788257 90.51072522 -26.375 90.625 C-38.80570416 90.64750354 -48.77895628 86.88015602 -57.91015625 78.27734375 C-69.75821095 65.72062036 -71.44314412 51.75758143 -71.05859375 35.1328125 C-70.49207932 23.02679885 -64.78169031 11.70994467 -55.9375 3.4375 C-39.94454295 -9.46204176 -17.43307675 -10.64366421 0 0 Z " fill="#F4EFD2" transform="translate(702.75,227.6875)"/>
<path d="M0 0 C0.33 0 0.66 0 1 0 C2.89671683 40.67403862 -15.38107955 82.80909 -42.19848633 112.82324219 C-44.42533263 115.25455818 -46.71062534 117.62767698 -49 120 C-49.84820312 120.91136719 -50.69640625 121.82273437 -51.5703125 122.76171875 C-79.48114032 151.96394308 -122.60723651 171.60485521 -163 173 C-166.33554841 173.05891594 -169.66460721 173.06511613 -173 173 C-170.12459808 169.98351527 -167.11726661 167.51270377 -163.75 165.0625 C-156.6035383 159.76591606 -149.72948659 154.15917389 -142.85400391 148.51757812 C-141.20345764 147.16653841 -139.54718008 145.82319337 -137.88671875 144.484375 C-132.55950012 140.17437634 -127.39949376 135.72977542 -122.33203125 131.1171875 C-120.24176111 129.21948831 -118.13013885 127.35266585 -116 125.5 C-101.84663512 113.14032889 -88.18266624 100.26474248 -74.875 87 C-74.09390869 86.22350098 -73.31281738 85.44700195 -72.50805664 84.64697266 C-68.35918336 80.48692366 -64.37253787 76.24749189 -60.56103516 71.77539062 C-58.9438481 69.93613753 -57.24829033 68.21440774 -55.5 66.5 C-51.78817534 62.83733858 -48.38932772 58.96063486 -45 55 C-44.10428598 53.95692878 -43.2084427 52.91396855 -42.3125 51.87109375 C-40.26651732 49.48824143 -38.22422898 47.10227632 -36.18359375 44.71484375 C-34.10229105 42.28166384 -32.01109216 39.85764956 -29.91015625 37.44140625 C-23.76661427 30.36043007 -17.9047702 23.14511502 -12.25732422 15.66162109 C-10.00019604 12.67870568 -7.71772228 9.71527288 -5.4375 6.75 C-5.00743652 6.18853271 -4.57737305 5.62706543 -4.13427734 5.04858398 C-1.11442505 1.11442505 -1.11442505 1.11442505 0 0 Z " fill="#E8E2D4" transform="translate(430,273)"/>
<path d="M0 0 C6.28880305 6.64816323 8.13163136 14.36900333 8.11352539 23.2590332 C8.11341209 25.12039665 8.11341209 25.12039665 8.11329651 27.0193634 C8.10819072 28.36316977 8.10297474 29.70697571 8.09765625 31.05078125 C8.09578965 32.43368987 8.09436689 33.81659915 8.09336853 35.19950867 C8.08956237 38.82774706 8.07974843 42.455945 8.06866455 46.08416748 C8.05840945 49.79113213 8.05386215 53.49810336 8.04882812 57.20507812 C8.03812435 64.4700726 8.02054306 71.73502546 8 79 C12.29 79.99 16.58 80.98 21 82 C20.67 84.31 20.34 86.62 20 89 C14.68445755 89.88709715 9.57174208 90.15301861 4.1875 90.125 C3.0437793 90.13080078 3.0437793 90.13080078 1.87695312 90.13671875 C-3.74645075 90.12677462 -3.74645075 90.12677462 -6 89 C-6.6328125 87.15234375 -6.6328125 87.15234375 -7.125 84.9375 C-7.37636719 83.83728516 -7.37636719 83.83728516 -7.6328125 82.71484375 C-7.75398438 82.14894531 -7.87515625 81.58304687 -8 81 C-11.48753044 82.67774293 -14.66498612 84.67020964 -17.90234375 86.78125 C-23.58031216 90.08018137 -28.36024827 90.36550441 -34.8125 90.375 C-35.67681641 90.39949219 -36.54113281 90.42398438 -37.43164062 90.44921875 C-44.96421596 90.48332853 -50.07374413 88.47106052 -55.8125 83.625 C-61.10964571 77.26842514 -61.5960046 71.76769553 -61.40625 63.703125 C-60.63100927 56.63650761 -57.75494479 52.14743447 -52.3125 47.6875 C-39.54706015 39.10589146 -24.90512211 38.66716968 -10 39 C-10.05212588 34.81150595 -10.14726582 30.62503432 -10.25 26.4375 C-10.26417969 25.25607422 -10.27835938 24.07464844 -10.29296875 22.85742188 C-10.48268978 16.08438093 -10.84474715 11.45856094 -15 6 C-22.49065089 0.47118625 -33.31314595 3.07516383 -42 4 C-42.09087891 5.28583984 -42.09087891 5.28583984 -42.18359375 6.59765625 C-43.1567441 19.87741558 -43.1567441 19.87741558 -44 24 C-46.70879335 25.35439668 -49.00933268 25.06501451 -52 25 C-54.91928318 16.90312023 -56.15096924 9.60524677 -56 1 C-40.31634381 -6.17123547 -14.8807985 -12.11227785 0 0 Z " fill="#F3EDD0" transform="translate(1321,227)"/>
<path d="M0 0 C6.28880305 6.64816323 8.13163136 14.36900333 8.11352539 23.2590332 C8.11341209 25.12039665 8.11341209 25.12039665 8.11329651 27.0193634 C8.10819072 28.36316977 8.10297474 29.70697571 8.09765625 31.05078125 C8.09578965 32.43368987 8.09436689 33.81659915 8.09336853 35.19950867 C8.08956237 38.82774706 8.07974843 42.455945 8.06866455 46.08416748 C8.05840945 49.79113213 8.05386215 53.49810336 8.04882812 57.20507812 C8.03812435 64.4700726 8.02054306 71.73502546 8 79 C12.29 79.99 16.58 80.98 21 82 C20.67 84.31 20.34 86.62 20 89 C14.68445755 89.88709715 9.57174208 90.15301861 4.1875 90.125 C3.0437793 90.13080078 3.0437793 90.13080078 1.87695312 90.13671875 C-3.74645075 90.12677462 -3.74645075 90.12677462 -6 89 C-6.6328125 87.15234375 -6.6328125 87.15234375 -7.125 84.9375 C-7.37636719 83.83728516 -7.37636719 83.83728516 -7.6328125 82.71484375 C-7.75398437 82.14894531 -7.87515625 81.58304687 -8 81 C-11.48753044 82.67774293 -14.66498612 84.67020964 -17.90234375 86.78125 C-23.58031216 90.08018137 -28.36024827 90.36550441 -34.8125 90.375 C-35.67681641 90.39949219 -36.54113281 90.42398438 -37.43164062 90.44921875 C-44.96421596 90.48332853 -50.07374413 88.47106052 -55.8125 83.625 C-61.10942515 77.26868981 -61.6038387 71.76516584 -61.3984375 63.69921875 C-60.70336957 57.24599006 -58.61941766 53.39913756 -53.86328125 49.04296875 C-40.67204233 38.9530517 -25.88788011 38.79396121 -10 39 C-10.05212588 34.81150595 -10.14726582 30.62503432 -10.25 26.4375 C-10.26417969 25.25607422 -10.27835938 24.07464844 -10.29296875 22.85742188 C-10.48268978 16.08438093 -10.84474715 11.45856094 -15 6 C-22.49065089 0.47118625 -33.31314595 3.07516383 -42 4 C-42.09087891 5.28583984 -42.09087891 5.28583984 -42.18359375 6.59765625 C-43.1567441 19.87741558 -43.1567441 19.87741558 -44 24 C-46.70879335 25.35439668 -49.00933268 25.06501451 -52 25 C-54.91928318 16.90312023 -56.15096924 9.60524677 -56 1 C-40.31634381 -6.17123547 -14.8807985 -12.11227785 0 0 Z " fill="#F3EDD0" transform="translate(935,227)"/>
<path d="M0 0 C1.08990234 -0.01160156 2.17980469 -0.02320313 3.30273438 -0.03515625 C12.76874642 -0.00140933 21.3244272 1.728613 30.0625 5.375 C30.87092096 16.71085836 28.66868352 25.73675862 25.0625 36.375 C19.3125 36.5 19.3125 36.5 17.0625 35.375 C16.5792017 32.48117685 16.21748103 29.6645566 15.9375 26.75 C15.85113281 25.95464844 15.76476562 25.15929687 15.67578125 24.33984375 C15.191583 19.65926069 14.97421329 15.0794202 15.0625 10.375 C0.78395013 8.57003658 -12.44166117 7.63127139 -24.34375 16.77734375 C-28.09403159 20.5368172 -28.25659101 24.0504638 -28.3125 29.25 C-28.2200526 34.82573396 -27.97013488 38.23624315 -23.9375 42.375 C-19.9458316 45.90543425 -16.12191422 48.5729352 -11.375 51.0625 C-10.43019775 51.56124634 -10.43019775 51.56124634 -9.46630859 52.07006836 C-5.55849116 54.10533149 -1.60268271 56.01396623 2.39453125 57.8671875 C3.31226318 58.29427002 4.22999512 58.72135254 5.17553711 59.16137695 C6.96672441 59.98896787 8.76289022 60.80589971 10.56469727 61.61010742 C20.34908956 66.11439055 30.43258849 72.76720165 34.69140625 83.05078125 C37.92342487 92.12987232 37.59817633 103.34236013 33.5625 112.0625 C26.66937575 123.69565142 15.73458062 128.40589861 3.07543945 131.75976562 C-2.01262798 132.79873572 -7.01090355 132.81852438 -12.1875 132.75 C-13.82404541 132.73803589 -13.82404541 132.73803589 -15.49365234 132.72583008 C-26.66515132 132.52967915 -36.69936465 130.97829259 -46.9375 126.375 C-47.62629073 115.54567904 -45.76832976 105.78881551 -42.9375 95.375 C-41.9375 94.375 -41.9375 94.375 -39 94.25 C-35.9375 94.375 -35.9375 94.375 -33.9375 95.375 C-33.43505859 97.69165039 -33.43505859 97.69165039 -33.0859375 100.72265625 C-32.95703125 101.80224609 -32.828125 102.88183594 -32.6953125 103.99414062 C-32.56898438 105.13044922 -32.44265625 106.26675781 -32.3125 107.4375 C-32.1784375 108.57767578 -32.044375 109.71785156 -31.90625 110.89257812 C-31.5750975 113.71920123 -31.25257931 116.54654752 -30.9375 119.375 C-15.87253495 122.39866883 -3.26977129 122.46294853 10.86328125 115.984375 C13.84972948 113.79891022 14.75927627 111.82567414 16.0625 108.375 C16.98046163 101.84252889 17.60060143 94.55074199 13.75 88.875 C5.47001978 80.35780684 -6.08136778 75.75244182 -16.70898438 70.9140625 C-27.7431264 65.77431427 -39.94612699 59.28048653 -44.875 47.4375 C-47.44010634 38.20311717 -47.54082864 26.14112087 -43.3203125 17.44921875 C-33.93581609 3.37247414 -15.71111159 -0.16664703 0 0 Z " fill="#F4EFD1" transform="translate(582.9375,185.625)"/>
<path d="M0 0 C0.75854387 10.13498887 -1.00320663 21.01927679 -6 30 C-8.64 30 -11.28 30 -14 30 C-14.05534912 29.37955811 -14.11069824 28.75911621 -14.16772461 28.11987305 C-14.42060348 25.30873363 -14.67898834 22.49812678 -14.9375 19.6875 C-15.06801758 18.22280273 -15.06801758 18.22280273 -15.20117188 16.72851562 C-15.33168945 15.32182617 -15.33168945 15.32182617 -15.46484375 13.88671875 C-15.543396 13.02264404 -15.62194824 12.15856934 -15.70288086 11.26831055 C-15.94787977 8.83913288 -15.94787977 8.83913288 -17 6 C-27.57225289 3.38032672 -38.87990951 2.14371497 -49 7 C-53.272864 9.96806325 -57.1044257 13.04022065 -59 18 C-59.81681558 24.11661896 -59.54517049 29.85952379 -56.359375 35.23828125 C-50.25851109 43.14486062 -39.76890428 46.77316213 -31 51 C-0.7669167 65.65263323 -0.7669167 65.65263323 4.2734375 79.765625 C4.51320313 80.50296875 4.75296875 81.2403125 5 82 C5.33 82.99 5.66 83.98 6 85 C6.86791446 94.21981258 5.76018346 102.5458725 0.421875 110.2890625 C-1.28321659 112.33978076 -3.05349211 114.17853544 -5 116 C-5.48855469 116.47050781 -5.97710938 116.94101562 -6.48046875 117.42578125 C-18.59988997 127.48895106 -37.10389454 127.81777141 -52 127 C-55.45722389 126.67217082 -58.88074372 126.21706914 -62.3125 125.6875 C-63.09391357 125.56987305 -63.87532715 125.45224609 -64.68041992 125.33105469 C-69.25171345 124.5536813 -72.91871783 123.3164034 -77 121 C-77.50497667 109.53983501 -76.56958435 99.94778772 -73 89 C-67.25 88.875 -67.25 88.875 -65 90 C-64.49755859 91.87011719 -64.49755859 91.87011719 -64.1484375 94.296875 C-64.01953125 95.1734375 -63.890625 96.05 -63.7578125 96.953125 C-63.63148437 97.87609375 -63.50515625 98.7990625 -63.375 99.75 C-63.2409375 100.6575 -63.106875 101.565 -62.96875 102.5 C-62.36518055 106.7126684 -61.92897984 110.73689638 -62 115 C-47.73023901 116.88025086 -31.60795561 118.18206819 -19 110 C-15.49471393 107.1117814 -14.20697393 103.82244576 -13.69921875 99.3515625 C-13.67005643 92.5664621 -14.04928119 87.45655632 -18.640625 82.078125 C-25.33898558 75.48202947 -33.60511324 71.93246297 -42 68 C-70.67281984 54.41953399 -70.67281984 54.41953399 -75.80078125 40.88671875 C-77.9710146 32.81108852 -78.5994157 22.58351889 -75.1015625 14.8359375 C-69.38714761 5.31191268 -60.29263018 -0.84256776 -49.59765625 -3.625 C-33.08794055 -6.95936053 -15.75494487 -5.83516477 0 0 Z " fill="#F4EFD2" transform="translate(1137,191)"/>
<path d="M0 0 C7.19981651 4.58988303 11.80551504 11.73655361 14.4765625 19.73828125 C15.84246835 26.74060579 15.58838802 33.96734572 15.125 41.0625 C14.125 42.0625 14.125 42.0625 11.91673279 42.18275452 C10.94188431 42.18053391 9.96703583 42.17831329 8.96264648 42.17602539 C7.86158066 42.17594986 6.76051483 42.17587433 5.62608337 42.17579651 C4.4281868 42.17063522 3.23029022 42.16547394 1.99609375 42.16015625 C0.77672623 42.1587413 -0.4426413 42.15732635 -1.69895935 42.15586853 C-5.6118307 42.15024967 -9.52464581 42.13769396 -13.4375 42.125 C-16.08268147 42.11998743 -18.72786383 42.1154241 -21.37304688 42.11132812 C-27.87371726 42.10027411 -34.37435461 42.08351764 -40.875 42.0625 C-40.61285876 45.41946906 -40.32792317 48.77413917 -40.0390625 52.12890625 C-39.9656665 53.07237915 -39.89227051 54.01585205 -39.81665039 54.98791504 C-39.05587713 63.59439672 -37.21980406 70.75170615 -30.87890625 77.04296875 C-23.36918422 83.01951502 -16.30888508 83.93737426 -6.875 83.0625 C-1.63328874 81.81797674 3.24224123 80.23956482 7.82421875 77.375 C8.58347656 76.941875 9.34273437 76.50875 10.125 76.0625 C12.4375 76.875 12.4375 76.875 14.125 78.0625 C13.58013076 81.82705112 12.2068596 83.24752095 9.25 85.5625 C4.25121896 89.29556404 -0.95021403 91.25592592 -6.875 93.0625 C-7.865 93.3925 -8.855 93.7225 -9.875 94.0625 C-23.66413351 95.18462041 -35.26106059 91.93826949 -46.0625 83.31640625 C-54.1716611 75.92908335 -59.16680478 65.40784724 -60.09423828 54.47900391 C-60.78714241 38.02035655 -60.0741948 24.0746792 -48.875 11.0625 C-37.45158798 -1.30479564 -15.86814988 -7.18138665 0 0 Z " fill="#F4EED1" transform="translate(1497.875,223.9375)"/>
<path d="M0 0 C8.65549938 5.24351925 12.83875588 14.51017007 15.2890625 24.01171875 C18.08041491 36.39826334 17.81491093 52.13871377 13.2890625 64.01171875 C12.88880859 65.12160156 12.88880859 65.12160156 12.48046875 66.25390625 C10.14128878 71.76397463 6.22961839 75.68263324 1.2890625 79.01171875 C-4.75942523 81.22174311 -13.15315447 81.20883442 -19.1953125 79.17578125 C-26.37188585 75.03117106 -30.85791953 68.25761242 -33.12109375 60.41015625 C-33.41306641 59.22292969 -33.41306641 59.22292969 -33.7109375 58.01171875 C-34.01837891 56.76261719 -34.01837891 56.76261719 -34.33203125 55.48828125 C-37.35070795 41.29009152 -37.36976588 21.58280625 -29.23828125 8.87890625 C-21.67639752 -0.36554496 -11.82592408 -4.31117981 0 0 Z " fill="#6A282A" transform="translate(686.7109375,229.98828125)"/>
<path d="M0 0 C7.11463463 4.26394911 11.0032439 10.87658609 13.4453125 18.64453125 C14.61935699 23.70295866 14.5934489 28.70900907 14.55078125 33.87890625 C14.56238281 35.27302734 14.56238281 35.27302734 14.57421875 36.6953125 C14.54324648 47.79887269 12.76532421 60.38092698 5.4765625 69.21484375 C-0.86876795 75.12385482 -7.44449911 77.62169212 -16.09765625 77.3671875 C-21.39721712 76.62715873 -26.87536442 74.82776058 -30.69921875 71.00390625 C-30.99356079 68.41204834 -30.99356079 68.41204834 -31.05322266 65.08886719 C-31.09172836 63.22618195 -31.09172836 63.22618195 -31.13101196 61.3258667 C-31.14734896 59.96335444 -31.16223601 58.60082413 -31.17578125 57.23828125 C-31.1839323 56.55255287 -31.19208336 55.86682449 -31.20048141 55.16031647 C-31.2422083 51.52892766 -31.27080558 47.89768999 -31.28955078 44.26611328 C-31.31165345 40.52153596 -31.38040605 36.77934514 -31.45989418 33.0356102 C-31.51229694 30.15128294 -31.52893989 27.26752046 -31.53611374 24.38275909 C-31.54583289 23.00317561 -31.5690281 21.62361634 -31.60618973 20.24449921 C-31.87839486 9.47053363 -31.87839486 9.47053363 -28.96861267 5.85142517 C-26.93792682 4.3015079 -24.98915107 3.12553222 -22.69921875 2.00390625 C-21.68472656 1.39675781 -20.67023438 0.78960937 -19.625 0.1640625 C-13.46776184 -2.27745917 -6.21995746 -2.29535333 0 0 Z " fill="#69282A" transform="translate(1213.69921875,232.99609375)"/>
<path d="M0 0 C0 41.58 0 83.16 0 126 C2.97 126.495 2.97 126.495 6 127 C8.68238446 127.61452621 11.33518868 128.31082466 14 129 C14.042721 130.66611905 14.04063832 132.33382885 14 134 C13 135 13 135 11.20933533 135.12025452 C10.42990067 135.11803391 9.650466 135.11581329 8.84741211 135.11352539 C7.96657455 135.11344986 7.085737 135.11337433 6.1782074 135.11329651 C5.22092239 135.10813522 4.26363739 135.10297394 3.27734375 135.09765625 C2.30213272 135.0962413 1.32692169 135.09482635 0.32215881 135.09336853 C-2.80609143 135.08775133 -5.93427123 135.07519593 -9.0625 135.0625 C-11.17773334 135.05748722 -13.29296781 135.05292393 -15.40820312 135.04882812 C-20.60549296 135.03777631 -25.80274145 135.02102146 -31 135 C-31 133.02 -31 131.04 -31 129 C-29.39743892 128.49487756 -27.79288208 127.99608373 -26.1875 127.5 C-25.29417969 127.2215625 -24.40085937 126.943125 -23.48046875 126.65625 C-21 126 -21 126 -18 126 C-18 88.05 -18 50.1 -18 11 C-22.95 10.67 -27.9 10.34 -33 10 C-33 4 -33 4 -32 3 C-28.8674734 2.16649394 -25.67688379 1.57785478 -22.5 0.9375 C-21.62601563 0.75123047 -20.75203125 0.56496094 -19.8515625 0.37304688 C-13.23998129 -0.96594546 -6.52309296 -2.17436432 0 0 Z " fill="#F4EED1" transform="translate(992,180)"/>
<path d="M0 0 C0.62867647 17.74264706 0.62867647 17.74264706 -3 25 C-6.375 25.1875 -6.375 25.1875 -10 25 C-11.91562291 22.12656563 -12.29210899 21.22496459 -12.6328125 17.98828125 C-12.71660156 17.23095703 -12.80039063 16.47363281 -12.88671875 15.69335938 C-12.96535156 14.90767578 -13.04398438 14.12199219 -13.125 13.3125 C-13.21136719 12.51521484 -13.29773437 11.71792969 -13.38671875 10.89648438 C-13.59848472 8.93176674 -13.80021473 6.96597204 -14 5 C-22.40483862 2.39376735 -30.23930424 1.31956883 -38.4375 5.125 C-46.65938189 9.82133893 -51.12717993 17.78693983 -53.59643555 26.78491211 C-54.49938638 31.74103606 -54.32673955 36.79163508 -54.3125 41.8125 C-54.32861328 42.93720703 -54.34472656 44.06191406 -54.36132812 45.22070312 C-54.36765353 56.10672693 -52.36977262 65.65965465 -45 74 C-38.11142569 79.4665012 -31.69973944 80.93940848 -23 80 C-16.78835545 78.51146637 -10.32193297 76.54795531 -5 73 C-2.8125 73.375 -2.8125 73.375 -1 74 C-0.67 75.32 -0.34 76.64 0 78 C-10.27093589 86.64409735 -20.62905628 91.54997942 -34.203125 91.25 C-45.74834732 90.21802482 -56.07964671 84.28874182 -64 76 C-73.98946357 64.02648593 -75.81885049 49.08807855 -75 34 C-73.32989953 22.068689 -67.41309572 11.03222495 -58.0078125 3.37890625 C-41.94356508 -8.08330588 -17.4598581 -10.04168005 0 0 Z " fill="#F3EDD0" transform="translate(1425,227)"/>
<path d="M0 0 C0.62774507 8.78843098 -1.69215289 16.60314556 -4 25 C-6.31 25 -8.62 25 -11 25 C-12.62875999 20.5517059 -13.50525722 16.31733822 -14.125 11.625 C-14.37636719 9.75714844 -14.37636719 9.75714844 -14.6328125 7.8515625 C-14.75398437 6.91054687 -14.87515625 5.96953125 -15 5 C-22.83927057 2.08062773 -31.49977111 1.51694141 -39.265625 5.046875 C-47.84282026 9.76046879 -51.33850228 17.59872437 -54.15234375 26.74609375 C-55.27306548 31.56565605 -55.34383649 36.31987464 -55.3125 41.25 C-55.30686035 42.17659424 -55.3012207 43.10318848 -55.29541016 44.05786133 C-55.09655374 55.30703112 -53.03319624 64.94261558 -46 74 C-40.56534557 78.62523781 -34.36959821 80.46132553 -27.234375 80.25390625 C-20.98392527 79.54362787 -15.09674372 77.71808602 -9.5625 74.75 C-6 73 -6 73 -3.77734375 73.390625 C-3.19082031 73.59171875 -2.60429688 73.7928125 -2 74 C-1.67 75.32 -1.34 76.64 -1 78 C-5.63837474 82.34847631 -10.17986738 85.44752658 -16 88 C-17.299375 88.5878125 -17.299375 88.5878125 -18.625 89.1875 C-29.26834073 92.82864288 -39.87445091 91.46633809 -50 87 C-62.00593134 80.59936153 -69.02227254 71.46065827 -73.8125 58.86328125 C-77.60060151 45.47339468 -76.01632202 27.72515316 -69.3125 15.6875 C-62.14432345 4.90907395 -52.37419062 -1.58504539 -40.0625 -5.4375 C-26.37819512 -8.06909709 -12.6760194 -5.2195374 0 0 Z " fill="#F3EED1" transform="translate(811,227)"/>
<path d="M0 0 C1.32 0.66 2.64 1.32 4 2 C4 28.73 4 55.46 4 83 C7.96 83.99 11.92 84.98 16 86 C16 87.65 16 89.3 16 91 C15 92 15 92 11.03100586 92.11352539 C9.25894393 92.1133662 7.4868774 92.10766785 5.71484375 92.09765625 C4.78402481 92.0962413 3.85320587 92.09482635 2.8941803 92.09336853 C-0.09141191 92.08775172 -3.07693029 92.0751964 -6.0625 92.0625 C-8.08137913 92.05748716 -10.10025943 92.05292388 -12.11914062 92.04882812 C-17.07945572 92.03777683 -22.03971532 92.02050095 -27 92 C-27 90.02 -27 88.04 -27 86 C-25.39743892 85.49487756 -23.79288208 84.99608373 -22.1875 84.5 C-21.29417969 84.2215625 -20.40085937 83.943125 -19.48046875 83.65625 C-17 83 -17 83 -14 83 C-14 59.57 -14 36.14 -14 12 C-17.96 12 -21.92 12 -26 12 C-26.99 11.67 -27.98 11.34 -29 11 C-29.04254356 9.00045254 -29.04080783 6.99958364 -29 5 C-26.79240809 2.79240809 -22.19070575 2.9770975 -19.125 2.5 C-17.48141603 2.24183207 -15.83817002 1.98150104 -14.1953125 1.71875 C-13.46328613 1.60466797 -12.73125977 1.49058594 -11.97705078 1.37304688 C-3.6751414 -0.19342849 -3.6751414 -0.19342849 0 0 Z " fill="#F4F0D2" transform="translate(849,223)"/>
<path d="M0 0 C0.83144531 0.00902344 1.66289063 0.01804687 2.51953125 0.02734375 C4.55481337 0.0507378 6.58994564 0.08660275 8.625 0.125 C8.85820282 4.16568739 8.9997013 8.20464201 9.125 12.25 C9.22554687 13.96316406 9.22554687 13.96316406 9.328125 15.7109375 C9.52118346 24.01245131 9.52118346 24.01245131 6.95141602 27.20263672 C0.75446423 31.94473954 -6.49767024 35.12756924 -14.375 34.125 C-18.26903629 32.69799291 -20.76950413 30.90628499 -23.3125 27.625 C-25.26317447 21.19924882 -25.63701473 14.74251203 -22.6875 8.625 C-15.83232065 1.2139953 -9.76168552 -0.20239539 0 0 Z " fill="#6A292B" transform="translate(1302.375,273.875)"/>
<path d="M0 0 C0.83144531 0.00902344 1.66289063 0.01804687 2.51953125 0.02734375 C4.55481337 0.0507378 6.58994564 0.08660275 8.625 0.125 C8.85820282 4.16568739 8.9997013 8.20464201 9.125 12.25 C9.22554687 13.96316406 9.22554687 13.96316406 9.328125 15.7109375 C9.52118346 24.01245131 9.52118346 24.01245131 6.95141602 27.20263672 C0.75446423 31.94473954 -6.49767024 35.12756924 -14.375 34.125 C-18.26903629 32.69799291 -20.76950413 30.90628499 -23.3125 27.625 C-25.26317447 21.19924882 -25.63701473 14.74251203 -22.6875 8.625 C-15.83232065 1.2139953 -9.76168552 -0.20239539 0 0 Z " fill="#6A292B" transform="translate(916.375,273.875)"/>
<path d="M0 0 C3.90248835 2.6016589 6.20197416 5.5716525 7.4140625 10.14453125 C7.88311671 13.35893214 7.90780268 16.44003463 7.875 19.6875 C7.86597656 20.84894531 7.85695313 22.01039063 7.84765625 23.20703125 C7.83605469 24.08746094 7.82445312 24.96789062 7.8125 25.875 C-3.74161992 29.72637331 -18.13527365 27.98713781 -30.1875 27.875 C-29.42935189 18.6025575 -27.35137007 11.39947468 -20.25 4.9375 C-13.73752477 -0.23345412 -8.27529443 -2.92069215 0 0 Z " fill="#6B2A2B" transform="translate(1488.1875,230.125)"/>
<path d="M0 0 C3.3186825 1.06344522 5.06144774 2.82358687 7.0859375 5.609375 C8.93008463 9.29766927 8.78092092 11.58875907 8.12109375 15.6796875 C6.02825735 19.11791872 4.01009675 21.49138103 0.12109375 22.6796875 C-6.76206255 23.33522619 -6.76206255 23.33522619 -10.75390625 20.9921875 C-13.76221195 17.71844306 -14.57306929 15.08653753 -15.50390625 10.8046875 C-14.64258555 6.49808401 -12.61897767 4.73840785 -9.234375 2.0546875 C-6.04674793 0.1939168 -3.66440592 -0.31753951 0 0 Z " fill="#F4EFD2" transform="translate(844.87890625,183.3203125)"/>
</svg>
